<?xml version="1.0" encoding="UTF-8" standalone="no"?>
<svg
   xmlns:dc="http://purl.org/dc/elements/1.1/"
   xmlns:cc="http://creativecommons.org/ns#"
   xmlns:rdf="http://www.w3.org/1999/02/22-rdf-syntax-ns#"
   xmlns:svg="http://www.w3.org/2000/svg"
   xmlns="http://www.w3.org/2000/svg"
   xmlns:sodipodi="http://sodipodi.sourceforge.net/DTD/sodipodi-0.dtd"
   xmlns:inkscape="http://www.inkscape.org/namespaces/inkscape"
   width="24"
   height="24"
   viewBox="0 0 24 24"
   version="1.1"
   id="svg4740"
   sodipodi:docname="cancel.svg"
   inkscape:version="0.92.4 (5da689c313, 2019-01-14)">
  <metadata
     id="metadata4744">
    <rdf:RDF>
      <cc:Work
         rdf:about="">
        <dc:format>image/svg+xml</dc:format>
        <dc:type
           rdf:resource="http://purl.org/dc/dcmitype/StillImage" />
      </cc:Work>
    </rdf:RDF>
  </metadata>
  <sodipodi:namedview
     pagecolor="#ffffff"
     bordercolor="#666666"
     borderopacity="1"
     objecttolerance="10"
     gridtolerance="10"
     guidetolerance="10"
     inkscape:pageopacity="0"
     inkscape:pageshadow="2"
     inkscape:window-width="1366"
     inkscape:window-height="715"
     id="namedview4742"
     showgrid="false"
     inkscape:zoom="9.8333333"
     inkscape:cx="0.32292051"
     inkscape:cy="16.961152"
     inkscape:window-x="-8"
     inkscape:window-y="194"
     inkscape:window-maximized="1"
     inkscape:current-layer="svg4740" />
  <defs
     id="defs4737">
    <style
       id="style4735">
      .cls-1 {
        fill-rule: evenodd;
      }
    </style>
  </defs>
  <path
     id="cancel"
     style="fill-rule:evenodd"
     d="M 7.9316406,6.9726562 A 0.949,0.949 0 0 0 7.2675781,8.6113281 l 3.3769529,3.3769529 -3.3769529,3.375 a 0.949,0.949 0 1 0 1.3417969,1.341797 l 3.375,-3.375 3.376953,3.375 a 0.951,0.951 0 0 0 1.34375,0 0.95,0.95 0 0 0 -0.002,-1.341797 l -3.376953,-3.375 3.376953,-3.3769529 A 0.949,0.949 0 1 0 15.361328,7.2695312 l -3.376953,3.3769528 -3.375,-3.3769528 A 0.949,0.949 0 0 0 7.9316406,6.9726562 Z" />
</svg>
